<?xml version="1.0" encoding="UTF-8"?>
<svg id="uuid-f484db2d-3126-46b1-a083-9469ba9c104c" data-name="Capa 1" xmlns="http://www.w3.org/2000/svg" viewBox="0 0 924.8 218.55">
  <path d="m164.65,19.41c32,0,56.14,9.5,72.43,28.48l-33.15,29.46c-2.7-4.25-6.79-8.02-12.28-11.29-5.65-2.62-12.85-3.93-21.61-3.93-16.53,0-29.46,9-38.79,27.01-2.62,6.38-3.93,12.77-3.93,19.15,0,21.36,9.49,36.42,28.48,45.18,5.4,1.96,10.48,2.95,15.22,2.95h5.4c16.37-1.55,24.55-4.66,24.55-9.33v-16.7h-33.88v-35.85h83.48v76.3c0,13.19-10.69,23.88-23.88,23.88h-12.95v-5.4c-7.61,3.6-19.4,6.38-35.36,8.35-4.17.65-8.59,1.15-13.26,1.47-21.61,0-40.27-6.71-55.98-20.13-9.58-9.41-16.45-18.91-20.62-28.48-6.55-13.09-9.82-27.17-9.82-42.23,0-24.8,9.98-47.55,29.95-68.26,15.55-13.75,34.21-20.62,55.98-20.62Z"/>
  <path d="m311.97,108.29v85.93h-49.11V46.07c0-13.1,10.62-23.71,23.71-23.71h25.39l49.11,85.93V22.36h49.11v147.99c0,13.19-10.69,23.88-23.88,23.88h-25.23l-49.11-85.93Z"/>
  <path d="m422.45,194.23V46.24c0-13.19,10.69-23.88,23.88-23.88h25.23v147.99c0,13.19-10.69,23.88-23.88,23.88h-25.23Z"/>
  <path d="m20.53,194.23V46.24c0-13.19,10.69-23.88,23.88-23.88h25.23v147.99c0,13.19-10.69,23.88-23.88,23.88h-25.23Z"/>
  <path d="m606.6,22.36v40.76h-36.83v107.23c0,13.19-10.69,23.88-23.88,23.88h-25.23V63.12h-36.83v-16.88c0-13.19,10.69-23.88,23.88-23.88h98.88Z"/>
  <path d="m618.88,46.07v17.04h75.62v26.03h-69.24v36.83h69.24v27.01h-75.62v41.25h99.05c13.1,0,23.71-10.62,23.71-23.71V22.36h-99.05c-13.1,0-23.71,10.62-23.71,23.71Z"/>
  <path d="m903.25,148.22c-1.29,1.36-2.67,2.65-4.11,3.85h0c-4.51,3.77-9.72,6.72-15.41,8.65-.64.22-1.09-.64-.53-1.04,8.75-6.24,15.32-15.32,18.37-25.9h0c.1-.35.2-.7.29-1.05.33-1.24.42-2.54.28-3.81-.84-7.35-3.33-14.19-7.09-20.16-.72-1.15-1.53-2.23-2.35-3.31-.26-.34-.5-.68-.74-1.03-2.2-3.3-3.49-7.27-3.49-11.53,0-.68.03-1.36.1-2.02.05-.47-.44-.8-.86-.59-2.23,1.18-4.21,2.75-5.87,4.62-1.95,2.21-3.44,4.83-4.32,7.71-.19.62-1.09.54-1.15-.11-.4-4.06-1.08-8.04-2.04-11.91-1.44-5.84-3.5-11.43-6.1-16.72-1.18-2.4-2.47-4.74-3.87-7,.06,0,.13-.01.19-.02-2.17-4.05-3.78-8.46-4.72-13.1-.49-2.44-.81-4.95-.91-7.51-.03-.71-.05-1.42-.05-2.14,0-7.49,1.71-14.58,4.75-20.91.2-.42-.15-.9-.61-.84-12.16,1.77-23.37,6.47-32.89,13.37-3.24,2.34-6.28,4.95-9.09,7.77-5.05,5.06-9.37,10.84-12.8,17.17-1.09,2-2.08,4.06-2.98,6.17-3.4,7.95-5.46,16.61-5.89,25.7-.03.64-.92.78-1.14.17-1.76-4.79-3.04-9.81-3.78-15.01-.07-.5-.68-.69-1.02-.31-12.01,13.23-19.32,30.8-19.32,50.08,0,7.17,1.01,14.11,2.9,20.68.15.53-.44.96-.89.65-6-4.01-11.05-9.33-14.75-15.54-.34-.57-1.22-.24-1.09.41,3.87,18.77,14.67,35,29.59,45.91,4.93,3.61,10.31,6.64,16.04,8.98,2.78,1.14,5.63,2.12,8.56,2.92,6.43,1.77,13.21,2.72,20.21,2.72,14.68,0,28.38-4.19,40-11.4,6.3-3.91,12-8.7,16.89-14.22,5.18-5.85,9.47-12.5,12.66-19.75.27-.61-.51-1.13-.97-.64Zm-49.4,30.04c-1.78,2.01-3.86,3.75-6.15,5.18-4.23,2.63-9.22,4.15-14.56,4.15-2.55,0-5.01-.34-7.36-.99-1.07-.29-2.11-.65-3.12-1.06-2.09-.85-4.04-1.96-5.84-3.27-5.43-3.97-9.36-9.88-10.77-16.71-.05-.24.27-.36.4-.15,1.34,2.26,3.18,4.2,5.37,5.66.17.11.38-.05.32-.24-.69-2.39-1.06-4.92-1.06-7.53,0-7.02,2.66-13.41,7.03-18.23.12-.14.35-.07.37.11.27,1.89.74,3.72,1.38,5.46.08.22.41.17.42-.06.16-3.31.91-6.46,2.14-9.36.33-.77.69-1.52,1.09-2.24,1.25-2.31,2.82-4.41,4.66-6.25,1.02-1.03,2.13-1.98,3.31-2.83,3.46-2.51,7.54-4.22,11.97-4.87.17-.02.3.15.22.3-1.11,2.3-1.73,4.88-1.73,7.61,0,.26,0,.52.02.78.04.93.15,1.85.33,2.73.34,1.69.93,3.29,1.72,4.77-.02,0-.05,0-.07,0,.51.82.98,1.67,1.41,2.55.95,1.92,1.7,3.96,2.22,6.08.35,1.41.6,2.86.74,4.34.02.24.35.27.42.04.32-1.05.86-2,1.57-2.81.6-.68,1.32-1.25,2.14-1.68.15-.08.33.04.31.21-.02.24-.04.49-.04.74,0,1.55.47,3,1.27,4.2.09.13.17.25.27.38.3.39.59.79.86,1.21,1.37,2.17,2.27,4.66,2.58,7.34.05.46.02.94-.1,1.39-.03.13-.07.26-.11.38h0c-1.11,3.85-3.5,7.16-6.69,9.43-.2.14-.04.46.19.38,2.07-.7,3.97-1.78,5.61-3.15h0c.53-.44,1.02-.91,1.5-1.4.17-.18.45.01.35.23-1.16,2.64-2.72,5.06-4.61,7.19Z"/>
</svg>